<?xml version="1.0" standalone="no"?>
<!DOCTYPE svg PUBLIC "-//W3C//DTD SVG 20010904//EN"
 "http://www.w3.org/TR/2001/REC-SVG-20010904/DTD/svg10.dtd">
<svg version="1.0" xmlns="http://www.w3.org/2000/svg"
 width="225.000000pt" height="225.000000pt" viewBox="0 0 225.000000 225.000000"
 preserveAspectRatio="xMidYMid meet">
<metadata>
Created by potrace 1.14, written by Peter Selinger 2001-2017
</metadata>
<g transform="translate(0.000000,225.000000) scale(0.100000,-0.100000)"
fill="#000000" stroke="none">
<path d="M1010 1967 c-80 -29 -80 -27 46 -111 100 -67 115 -80 102 -92 -12
-12 -34 -7 -163 36 -82 27 -152 50 -155 50 -22 0 -101 -192 -85 -208 2 -2 19
5 38 16 78 49 215 65 320 37 72 -19 77 -19 77 0 0 28 27 70 54 85 72 38 166
-12 166 -90 0 -24 11 -25 50 -5 21 11 27 20 23 36 -3 11 -13 23 -22 26 -33 12
-41 24 -29 43 9 14 7 24 -12 49 l-22 32 -22 -20 c-31 -29 -51 -14 -42 33 7 37
7 37 -49 62 -31 14 -58 24 -61 21 -3 -2 0 -24 5 -48 14 -61 13 -86 -4 -93 -10
-4 -26 17 -56 74 l-41 80 -42 0 c-22 -1 -57 -7 -76 -13z"/>
<path d="M927 1670 c-52 -9 -148 -52 -166 -74 -12 -14 8 -105 34 -157 14 -26
18 -28 38 -18 43 23 155 15 260 -19 53 -18 116 -32 140 -32 31 0 38 -3 27 -10
-25 -16 -122 -11 -201 10 -79 21 -174 26 -199 10 -22 -14 31 -64 110 -103 58
-29 73 -32 155 -32 76 0 99 4 147 27 31 14 77 45 102 68 47 43 92 107 83 116
-3 3 -22 1 -44 -5 -80 -23 -137 -13 -287 46 -55 22 -117 38 -160 42 -68 7 -70
8 -32 16 53 11 181 0 236 -20 84 -31 263 -32 304 -2 18 14 31 96 18 115 -8 11
-15 11 -43 -4 -51 -27 -202 -26 -294 3 -85 26 -164 34 -228 23z"/>
<path d="M1322 1118 c-7 -7 -12 -22 -12 -35 0 -19 5 -23 29 -23 29 0 41 14 41
51 0 22 -38 27 -58 7z"/>
<path d="M375 1029 c-32 -18 -45 -40 -45 -75 0 -40 36 -72 91 -80 21 -4 47
-13 56 -20 17 -13 17 -15 -2 -29 -23 -18 -64 -12 -81 11 -15 19 -74 19 -74 0
0 -8 10 -27 23 -41 42 -50 168 -43 203 10 36 55 0 105 -91 128 -55 13 -72 40
-34 52 14 5 30 0 50 -14 33 -24 79 -28 79 -7 0 8 -10 27 -23 42 -19 22 -34 28
-78 31 -30 2 -63 -2 -74 -8z"/>
<path d="M912 1025 c-43 -19 -52 -47 -52 -161 l0 -94 35 0 35 0 0 93 c0 50 4
98 9 105 5 8 22 12 42 10 l34 -3 3 -80 c3 -115 7 -125 42 -125 l30 0 0 101 c0
55 -5 109 -10 120 -25 45 -105 61 -168 34z"/>
<path d="M1465 1029 c-32 -18 -45 -40 -45 -75 0 -40 36 -72 91 -80 21 -4 47
-13 56 -20 17 -13 17 -15 -1 -29 -27 -20 -52 -19 -76 5 -24 24 -80 27 -80 6 0
-8 10 -27 23 -41 42 -50 168 -43 203 10 36 55 0 105 -91 128 -55 13 -72 40
-34 52 14 5 30 0 50 -14 33 -24 79 -28 79 -7 0 8 -10 27 -23 42 -19 22 -34 28
-78 31 -30 2 -63 -2 -74 -8z"/>
<path d="M1742 1027 c-31 -17 -49 -46 -57 -90 -21 -111 53 -194 153 -172 33 7
82 50 82 71 0 19 -54 18 -70 -1 -19 -23 -66 -19 -84 7 -9 12 -16 26 -16 30 0
5 41 8 90 8 89 0 90 0 90 25 0 42 -29 100 -59 118 -34 20 -96 22 -129 4z m106
-74 c14 -23 14 -23 -42 -23 -58 0 -67 8 -40 35 22 22 63 15 82 -12z"/>
<path d="M592 926 c3 -118 13 -138 80 -158 29 -8 47 -8 76 0 65 20 75 38 80
158 l5 105 -34 -3 -34 -3 -5 -90 c-3 -49 -9 -96 -13 -102 -10 -16 -59 -17 -75
-1 -8 8 -12 46 -12 105 l0 93 -36 0 -36 0 4 -104z"/>
<path d="M1169 1002 c-34 -31 -48 -79 -49 -174 l0 -58 35 0 35 0 0 68 c0 82
15 115 55 122 25 4 31 10 33 38 3 31 2 32 -37 32 -30 0 -49 -7 -72 -28z"/>
<path d="M1310 901 l0 -131 35 0 36 0 -3 128 -3 127 -32 3 -33 3 0 -130z"/>
<path d="M320 590 c0 -60 4 -100 10 -100 6 0 10 23 10 51 l0 50 53 -3 52 -3 3
-47 c6 -88 22 -50 22 52 0 60 -4 100 -10 100 -5 0 -10 -18 -10 -40 l0 -40 -55
0 -55 0 0 40 c0 22 -4 40 -10 40 -6 0 -10 -40 -10 -100z"/>
<path d="M621 677 c-89 -52 -54 -187 49 -187 124 0 138 182 15 196 -24 3 -50
-1 -64 -9z m103 -28 c57 -45 21 -139 -55 -139 -71 0 -105 85 -54 135 30 31 73
32 109 4z"/>
<path d="M892 678 c-7 -7 -12 -24 -12 -39 0 -22 9 -32 43 -51 47 -26 54 -52
20 -75 -19 -13 -24 -12 -42 6 -25 25 -31 26 -31 6 0 -39 82 -47 106 -10 22 34
10 62 -37 85 -26 14 -39 27 -39 41 0 24 27 36 50 21 22 -13 34 -4 19 15 -14
16 -61 17 -77 1z"/>
<path d="M1090 590 c0 -60 4 -100 10 -100 6 0 10 20 10 45 0 43 1 45 28 45 35
0 52 16 52 51 0 33 -32 59 -72 59 l-28 0 0 -100z m68 71 c8 -4 12 -19 10 -32
-2 -18 -10 -25 -30 -27 -26 -3 -28 -1 -28 32 0 37 17 47 48 27z"/>
<path d="M1290 590 c0 -60 4 -100 10 -100 6 0 10 40 10 100 0 60 -4 100 -10
100 -6 0 -10 -40 -10 -100z"/>
<path d="M1400 680 c0 -5 11 -10 25 -10 25 0 25 -1 25 -90 0 -53 4 -90 10 -90
6 0 10 37 10 90 0 89 0 90 25 90 14 0 25 5 25 10 0 6 -27 10 -60 10 -33 0 -60
-4 -60 -10z"/>
<path d="M1631 597 c-44 -101 -46 -107 -32 -107 5 0 14 14 21 30 11 27 17 30
55 30 39 0 44 -3 54 -30 5 -16 15 -30 20 -30 6 0 11 1 11 3 0 5 -81 191 -85
195 -1 1 -21 -40 -44 -91z m72 -29 c-6 -10 -51 -10 -56 0 -2 4 2 23 10 42 l15
35 18 -35 c10 -19 16 -38 13 -42z"/>
<path d="M1850 590 l0 -100 40 0 c22 0 40 5 40 10 0 6 -13 10 -30 10 l-30 0 0
90 c0 53 -4 90 -10 90 -6 0 -10 -40 -10 -100z"/>
</g>
</svg>
